<svg width="366" height="348" viewBox="0 0 366 348" fill="none" xmlns="http://www.w3.org/2000/svg">
<path d="M238.001 238.001C210.801 256.401 199.334 312.001 197.001 337.501C206.201 337.501 256.501 289.834 280.501 266.001C279.301 272.001 228.334 320.834 203.001 344.501C275.001 341.001 306.501 300.501 320.501 281.501C331.701 266.301 335.501 226.834 336.001 209.001L335.851 209.015C325 210.048 271.842 215.109 238.001 238.001Z" fill="#2D7ABF"/>
<path d="M137.001 282.692C159.668 290.383 180.001 320.192 188.501 336.692C172.668 341.692 143.001 351.692 118.001 345.692C93.001 339.692 71.001 304.692 61.001 287.192C83.501 276.192 109.001 273.192 137.001 282.692Z" fill="#2D7ABF"/>
<path fill-rule="evenodd" clip-rule="evenodd" d="M70.501 27.9966H110.501V85.0049C103.555 85.0049 96.6091 85.0053 90.501 85.0053C84.3928 85.0053 77.4469 85.0053 70.501 85.0053V27.9966Z" fill="#F9F9F9"/>
<path d="M125.001 151.001C125.001 145.478 129.478 141.001 135.001 141.001H167.001V181.001H125.001V151.001Z" fill="#F9F9F9"/>
<path d="M227.001 141.001C232.524 141.001 237.001 145.478 237.001 151.001V181.001H195.001V141.001H227.001Z" fill="#F9F9F9"/>
<path fill-rule="evenodd" clip-rule="evenodd" d="M167.177 7.76925C173.933 -0.969864 186.494 -2.57799 195.233 4.1774L358.233 130.177C366.972 136.933 368.58 149.494 361.825 158.233C355.069 166.972 342.508 168.58 333.769 161.825L170.769 35.8245C162.03 29.0691 160.422 16.5084 167.177 7.76925Z" fill="#F9F9F9"/>
<path fill-rule="evenodd" clip-rule="evenodd" d="M32.2327 161.825L195.233 35.8245L170.769 4.1774L7.76923 130.177C-0.969879 136.933 -2.578 149.494 4.1774 158.233C10.9328 166.972 23.4936 168.58 32.2327 161.825Z" fill="#F9F9F9"/>
<path d="M135.001 252.001C129.478 252.001 125.001 247.524 125.001 242.001V212.001H167.001V252.001H135.001Z" fill="#F9F9F9"/>
<path d="M195.001 212.001H237.001V226.001C228.201 230.001 216.334 244.168 211.501 253.001H195.001V212.001Z" fill="#F9F9F9"/>
</svg>
