<svg width="275" height="172" viewBox="0 0 275 172" fill="none" xmlns="http://www.w3.org/2000/svg">
<path fill-rule="evenodd" clip-rule="evenodd" d="M10.5001 166C10.5001 163.515 12.5148 161.5 15.0001 161.5H61.0001C63.4853 161.5 65.5001 163.515 65.5001 166C65.5001 168.485 63.4853 170.5 61.0001 170.5H15.0001C12.5148 170.5 10.5001 168.485 10.5001 166Z" fill="#F9F9F9"/>
<path fill-rule="evenodd" clip-rule="evenodd" d="M49.3947 1.54042C52.9211 2.39401 56.4993 3.82279 59.0621 6.20255C59.6624 6.76001 60.0992 7.47078 60.3253 8.2582L74.8253 58.7582C75.2153 60.1164 74.9446 61.5789 74.0944 62.7076C73.2442 63.8363 71.9131 64.5001 70.5 64.5001H42V166C42 168.485 39.9853 170.5 37.5 170.5C35.0148 170.5 33 168.485 33 166V64.5001H4.50004C3.07253 64.5001 1.7297 63.8228 0.881213 62.6748C0.0327305 61.5269 -0.220748 60.0444 0.198111 58.6797L15.6981 8.17968C15.9317 7.41874 16.3629 6.73337 16.9478 6.19347C19.3834 3.94516 22.8624 2.55278 26.2838 1.69103C29.8192 0.800553 33.8226 0.34648 37.7741 0.312706C41.7243 0.278943 45.7736 0.663914 49.3947 1.54042ZM23.8801 12.1949L10.5884 55.5001H64.5261L52.0782 12.1468C51.0257 11.4773 49.4372 10.8106 47.2773 10.2878C44.5078 9.61743 41.2132 9.28364 37.851 9.31238C34.49 9.3411 31.2122 9.73079 28.4819 10.4185C26.3747 10.9492 24.8566 11.5918 23.8801 12.1949Z" fill="#F9F9F9"/>
<path fill-rule="evenodd" clip-rule="evenodd" d="M19.5001 57C21.9853 57 24.0001 59.0147 24.0001 61.5V81C24.0001 83.4853 21.9853 85.5 19.5001 85.5C17.0148 85.5 15.0001 83.4853 15.0001 81V61.5C15.0001 59.0147 17.0148 57 19.5001 57Z" fill="#F9F9F9"/>
<path d="M28.0001 83C28.0001 87.9706 23.9706 92 19.0001 92C14.0295 92 10.0001 87.9706 10.0001 83C10.0001 78.0294 14.0295 74 19.0001 74C23.9706 74 28.0001 78.0294 28.0001 83Z" fill="#F9F9F9"/>
<path fill-rule="evenodd" clip-rule="evenodd" d="M103.492 74.4479C101.61 76.4613 101.033 78.9127 101.033 80.5V109.5H171.967V80.5C171.967 78.9127 171.39 76.4613 169.508 74.4479C167.728 72.5427 164.281 70.5 157.5 70.5H115.5C108.719 70.5 105.272 72.5427 103.492 74.4479ZM115.5 61.5C106.781 61.5 100.744 64.2073 96.9168 68.3021C93.1905 72.2887 92.0334 77.0873 92.0334 80.5V118.5H176C176.078 118.5 176.156 118.498 176.233 118.494C176.311 118.498 176.388 118.5 176.467 118.5C178.952 118.5 180.967 116.485 180.967 114V80.5C180.967 77.0873 179.81 72.2887 176.083 68.3021C172.256 64.2073 166.219 61.5 157.5 61.5H115.5Z" fill="#F9F9F9"/>
<path fill-rule="evenodd" clip-rule="evenodd" d="M184.958 74.4479C183.076 76.4613 182.5 78.9127 182.5 80.5V109.5H253.433V80.5C253.433 78.9127 252.857 76.4613 250.975 74.4479C249.194 72.5427 245.748 70.5 238.967 70.5H196.967C190.185 70.5 186.739 72.5427 184.958 74.4479ZM196.967 61.5C188.248 61.5 182.211 64.2073 178.383 68.3021C174.657 72.2887 173.5 77.0873 173.5 80.5V118.5H257.467C257.545 118.5 257.623 118.498 257.7 118.494C257.777 118.498 257.855 118.5 257.933 118.5C260.418 118.5 262.433 116.485 262.433 114V80.5C262.433 77.0873 261.276 72.2887 257.55 68.3021C253.722 64.2073 247.685 61.5 238.967 61.5H196.967Z" fill="#F9F9F9"/>
<path fill-rule="evenodd" clip-rule="evenodd" d="M87.1989 110.497C88.9124 110.03 90.7764 110 92.5 110H261.5C263.224 110 265.088 110.03 266.801 110.497C268.799 111.042 270.346 112.091 271.688 113.6C273.196 115.295 273.921 117.119 274.239 119.195C274.501 120.907 274.501 122.967 274.5 125.205V140.795C274.501 143.033 274.501 145.093 274.239 146.805C273.921 148.881 273.196 150.705 271.688 152.4C270.346 153.909 268.799 154.958 266.801 155.503C265.088 155.97 263.224 156 261.5 156H92.5C90.7764 156 88.9124 155.97 87.1989 155.503C85.2006 154.958 83.6536 153.909 82.312 152.4C80.8045 150.705 80.079 148.881 79.7612 146.805C79.499 145.093 79.4995 143.033 79.5 140.794C79.5 140.697 79.5 140.598 79.5 140.5L79.5 125.5C79.5 125.402 79.5 125.303 79.5 125.206C79.4995 122.967 79.499 120.907 79.7612 119.195C80.079 117.119 80.8045 115.295 82.312 113.6C83.6536 112.091 85.2006 111.042 87.1989 110.497ZM261.5 147C263.33 147 264.042 146.927 264.434 146.82C264.556 146.787 264.594 146.762 264.613 146.75C264.643 146.73 264.755 146.654 264.963 146.42C265.13 146.232 265.242 146.101 265.343 145.443C265.488 144.496 265.5 143.148 265.5 140.5V125.5C265.5 122.852 265.488 121.504 265.343 120.557C265.242 119.899 265.13 119.768 264.963 119.58C264.755 119.346 264.643 119.27 264.613 119.251C264.594 119.238 264.556 119.214 264.434 119.18C264.042 119.073 263.33 119 261.5 119H92.5C90.6697 119 89.9584 119.073 89.5664 119.18C89.4442 119.213 89.4063 119.238 89.3874 119.25C89.3573 119.27 89.2453 119.346 89.0375 119.58C88.8703 119.768 88.7584 119.899 88.6575 120.557C88.5125 121.504 88.5 122.852 88.5 125.5V140.5C88.5 143.148 88.5125 144.496 88.6575 145.443C88.7584 146.101 88.8703 146.232 89.0375 146.42C89.2453 146.654 89.3566 146.73 89.3867 146.749C89.4056 146.762 89.4442 146.787 89.5664 146.82C89.9584 146.927 90.6697 147 92.5 147H261.5Z" fill="#F9F9F9"/>
<path fill-rule="evenodd" clip-rule="evenodd" d="M96.5 148.5C98.9853 148.5 101 150.515 101 153V167C101 169.485 98.9853 171.5 96.5 171.5C94.0147 171.5 92 169.485 92 167V153C92 150.515 94.0147 148.5 96.5 148.5ZM257.5 149C259.985 149 262 151.015 262 153.5V167.5C262 169.985 259.985 172 257.5 172C255.015 172 253 169.985 253 167.5V153.5C253 151.015 255.015 149 257.5 149Z" fill="#F9F9F9"/>
<path d="M123.5 91C123.5 93.4853 121.485 95.5 119 95.5C116.515 95.5 114.5 93.4853 114.5 91C114.5 88.5147 116.515 86.5 119 86.5C121.485 86.5 123.5 88.5147 123.5 91Z" fill="#F9F9F9"/>
<path d="M159.5 91C159.5 93.4853 157.485 95.5 155 95.5C152.515 95.5 150.5 93.4853 150.5 91C150.5 88.5147 152.515 86.5 155 86.5C157.485 86.5 159.5 88.5147 159.5 91Z" fill="#F9F9F9"/>
<path d="M204 91C204 93.4853 201.985 95.5 199.5 95.5C197.015 95.5 195 93.4853 195 91C195 88.5147 197.015 86.5 199.5 86.5C201.985 86.5 204 88.5147 204 91Z" fill="#F9F9F9"/>
<path d="M240 91C240 93.4853 237.985 95.5 235.5 95.5C233.015 95.5 231 93.4853 231 91C231 88.5147 233.015 86.5 235.5 86.5C237.985 86.5 240 88.5147 240 91Z" fill="#F9F9F9"/>
</svg>
